<svg  viewBox="0 0 1920 1280" fill="none" xmlns="http://www.w3.org/2000/svg">
<g clip-path="url(#clip0_559:8)">
<rect width="1920" height="1280" transform="matrix(-1 0 0 1 1920 0)" fill="#081015"/>
<path d="M0 1280H1364L584 0H0V1280Z" fill="#081015"/>
<rect width="1920" height="276" transform="matrix(-1 0 0 1 1920 0)" fill="url(#paint0_linear_559:8)"/>
<rect x="1920" y="1280" width="1920" height="276" transform="rotate(180 1920 1280)" fill="url(#paint1_linear_559:8)"/>
<g filter="url(#filter0_d_559:8)">
<path d="M1788 0H460L1228 1280H1788V0Z" fill="url(#paint2_linear_559:8)" shape-rendering="crispEdges"/>
</g>
</g>
<defs>
<filter id="filter0_d_559:8" x="456" y="0" width="1336" height="1288" filterUnits="userSpaceOnUse" color-interpolation-filters="sRGB">
<feFlood flood-opacity="0" result="BackgroundImageFix"/>
<feColorMatrix in="SourceAlpha" type="matrix" values="0 0 0 0 0 0 0 0 0 0 0 0 0 0 0 0 0 0 127 0" result="hardAlpha"/>
<feOffset dy="4"/>
<feGaussianBlur stdDeviation="2"/>
<feComposite in2="hardAlpha" operator="out"/>
<feColorMatrix type="matrix" values="0 0 0 0 0.0470588 0 0 0 0 0.113725 0 0 0 0 0.145098 0 0 0 1 0"/>
<feBlend mode="normal" in2="BackgroundImageFix" result="effect1_dropShadow_559:8"/>
<feBlend mode="normal" in="SourceGraphic" in2="effect1_dropShadow_559:8" result="shape"/>
</filter>
<linearGradient id="paint0_linear_559:8" x1="960" y1="0" x2="960" y2="276" gradientUnits="userSpaceOnUse">
<stop stop-color="#050607"/>
<stop offset="1" stop-color="#050607" stop-opacity="0"/>
</linearGradient>
<linearGradient id="paint1_linear_559:8" x1="2880" y1="1280" x2="2880" y2="1556" gradientUnits="userSpaceOnUse">
<stop stop-color="#050607"/>
<stop offset="1" stop-color="#050607" stop-opacity="0"/>
</linearGradient>
<linearGradient id="paint2_linear_559:8" x1="848" y1="480" x2="1496" y2="280" gradientUnits="userSpaceOnUse">
<stop stop-color="#0E222D"/>
<stop offset="1" stop-color="#0C1E27" stop-opacity="0"/>
</linearGradient>
<clipPath id="clip0_559:8">
<rect width="1920" height="1280" fill="white" transform="matrix(-1 0 0 1 1920 0)"/>
</clipPath>
</defs>
</svg>
