<svg width="133" height="133" viewBox="0 0 133 133" fill="none" xmlns="http://www.w3.org/2000/svg">
<rect x="0.704102" y="0.29834" width="132" height="132" rx="20" fill="#1E1F23"/>
<path d="M61.2454 100.232L53.1433 97.8809C52.2932 97.6418 51.8151 96.7519 52.0541 95.9019L70.1842 33.4494C70.4233 32.5994 71.3132 32.1212 72.1632 32.3603L80.2653 34.7112C81.1154 34.9503 81.5935 35.8402 81.3545 36.6903L63.2244 99.1427C62.972 99.9928 62.0954 100.484 61.2454 100.232ZM46.1038 85.3293L51.8815 79.1664C52.4924 78.5156 52.4526 77.4796 51.7752 76.8819L39.7416 66.2961L51.7752 55.7102C52.4526 55.1125 52.5057 54.0765 51.8815 53.4257L46.1038 47.2628C45.5061 46.6253 44.4966 46.5854 43.8458 47.1964L24.7063 65.1273C24.0289 65.7515 24.0289 66.8274 24.7063 67.4516L43.8458 85.3957C44.4966 86.0067 45.5061 85.9802 46.1038 85.3293ZM89.5628 85.409L108.702 67.4649C109.38 66.8406 109.38 65.7648 108.702 65.1405L89.5628 47.1831C88.9253 46.5854 87.9158 46.612 87.3049 47.2495L81.5271 53.4124C80.9162 54.0633 80.956 55.0993 81.6334 55.697L93.667 66.2961L81.6334 76.8819C80.956 77.4796 80.9029 78.5156 81.5271 79.1664L87.3049 85.3293C87.9025 85.9802 88.912 86.0067 89.5628 85.409Z" fill="white"/>
</svg>
