<svg width="133" height="133" viewBox="0 0 133 133" fill="none" xmlns="http://www.w3.org/2000/svg">
<rect x="0.666016" y="0.29834" width="132" height="132" rx="20" fill="#1E1F23"/>
<path d="M52.0647 85.3322L57.8424 79.1693C58.4534 78.5185 58.4135 77.4825 57.7362 76.8848L45.7026 66.299L57.7362 55.7131C58.4135 55.1155 58.4667 54.0795 57.8424 53.4286L52.0647 47.2657C51.467 46.6282 50.4576 46.5883 49.8067 47.1993L30.6672 65.1302C29.9898 65.7544 29.9898 66.8303 30.6672 67.4545L49.8067 85.3987C50.4576 86.0096 51.467 85.9831 52.0647 85.3322ZM83.5238 85.4119L102.663 67.4678C103.341 66.8436 103.341 65.7677 102.663 65.1434L83.5238 47.186C82.8862 46.5883 81.8768 46.6149 81.2658 47.2524L75.4881 53.4153C74.8771 54.0662 74.9169 55.1022 75.5943 55.6999L87.6279 66.299L75.5943 76.8848C74.9169 77.4825 74.8638 78.5185 75.4881 79.1693L81.2658 85.3322C81.8635 85.9831 82.8729 86.0096 83.5238 85.4119Z" fill="white"/>
</svg>
