<svg width="70" height="70" viewBox="0 0 70 70" fill="none" xmlns="http://www.w3.org/2000/svg">
<g clip-path="url(#clip0)">
<rect width="70" height="70" fill="white"/>
<path d="M58.0016 33.1819L58.0047 33.1789C58.1664 33.03 58.1664 32.7713 58.0048 32.6223L58.0015 32.6193L47.3632 22.638L58.0016 33.1819ZM58.0016 33.1819L47.3669 43.1524C47.3664 43.1529 47.3659 43.1533 47.3654 43.1538M58.0016 33.1819L47.3654 43.1538M47.3654 43.1538C47.2 43.3041 46.957 43.2891 46.8184 43.1381L46.8148 43.1344L43.6034 39.7088L43.6034 39.7088L43.5994 39.7047C43.4535 39.5525 43.4605 39.3041 43.6285 39.1559L50.3166 33.2724L50.7431 32.8972L50.3169 32.5217L43.6285 26.6306L47.3654 43.1538ZM43.6034 26.0777L43.6031 26.078C43.4548 26.236 43.4657 26.4867 43.6281 26.6304L43.6034 26.0777ZM43.6034 26.0777L46.8111 22.6561C46.8116 22.6556 46.812 22.6551 46.8125 22.6546M43.6034 26.0777L46.8125 22.6546M46.8125 22.6546C46.9637 22.4985 47.2102 22.4947 47.363 22.6379L46.8125 22.6546ZM27.6011 49.9728L27.5972 49.9717C27.4011 49.9165 27.2773 49.7063 27.3373 49.49C27.3374 49.4894 27.3376 49.4889 27.3377 49.4883L37.414 14.7789L37.414 14.779L37.4151 14.7749C37.4702 14.5789 37.6804 14.4551 37.8968 14.515C37.8973 14.5152 37.8979 14.5153 37.8984 14.5155L42.3979 15.8211L42.3979 15.8211L42.4019 15.8222C42.5979 15.8774 42.7217 16.0876 42.6617 16.304C42.6616 16.3045 42.6614 16.305 42.6613 16.3056L32.5859 51.0121C32.5858 51.0125 32.5857 51.0129 32.5856 51.0133C32.5211 51.2281 32.3071 51.3397 32.1075 51.2804L31.9652 51.7597L32.1046 51.2795L27.6011 49.9728ZM26.3959 39.7086L26.3957 39.7088L23.1842 43.1344L23.5489 43.4763L23.1807 43.1381C23.0422 43.289 22.8009 43.3035 22.6361 43.1487L22.6359 43.1485L11.9974 33.1745L11.9974 33.1745L11.9943 33.1716C11.8326 33.0226 11.8326 32.7639 11.9943 32.615L11.9943 32.615L11.9973 32.6122L22.6357 22.6455L22.6361 22.6452C22.796 22.495 23.0405 22.5063 23.1842 22.6595L26.3957 26.0851L26.3956 26.0851L26.3996 26.0892C26.5455 26.2413 26.5385 26.4896 26.3708 26.6378C26.3707 26.6379 26.3706 26.6379 26.3706 26.638L19.6824 32.5215L19.2556 32.8969L19.6824 33.2724L26.3706 39.1559C26.3706 39.156 26.3707 39.156 26.3708 39.1561C26.5333 39.2998 26.5443 39.5505 26.3959 39.7086Z" fill="white" stroke="black"/>
</g>
<defs>
<clipPath id="clip0">
<rect width="70" height="70" rx="10" fill="white"/>
</clipPath>
</defs>
</svg>
