<svg width="70" height="70" viewBox="0 0 70 70" fill="none" xmlns="http://www.w3.org/2000/svg">
<g clip-path="url(#clip0)">
<rect width="70" height="70" fill="white"/>
<path d="M25.4687 46.6086L25.4687 46.6086L25.4652 46.6123C25.2837 46.81 24.9698 46.8264 24.7581 46.6277L24.7578 46.6275L12.741 35.3612L12.741 35.3612L12.7379 35.3583C12.5275 35.1644 12.5275 34.8282 12.7379 34.6343L12.7379 34.6343L12.7409 34.6315L24.7577 23.3736L24.7581 23.3733C24.9648 23.1791 25.282 23.1932 25.4687 23.3924L29.0963 27.2618L29.0963 27.2618L29.1002 27.2659C29.2911 27.4649 29.2802 27.7879 29.0637 27.9791C29.0636 27.9791 29.0636 27.9792 29.0635 27.9792L21.5088 34.6251L21.082 35.0005L21.5088 35.3759L29.0635 42.0217C29.0636 42.0218 29.0637 42.0219 29.0638 42.022C29.2751 42.2087 29.2889 42.534 29.0965 42.7389L29.0963 42.7392L25.4687 46.6086ZM57.2631 35.3666L57.2599 35.3696L45.2469 46.6323C45.2464 46.6328 45.2459 46.6333 45.2454 46.6337C45.0332 46.8271 44.7174 46.8102 44.5357 46.6123L44.5358 46.6123L44.5322 46.6086L40.9047 42.7392L40.9047 42.7392L40.9008 42.7351C40.7099 42.5361 40.7207 42.2132 40.9372 42.022C40.9373 42.0219 40.9373 42.0218 40.9374 42.0217L48.4922 35.3759L48.9187 35.0007L48.4924 34.6253L40.9374 27.9709C40.7259 27.7842 40.712 27.4587 40.9045 27.2537L40.9047 27.2534L44.5285 23.388C44.529 23.3874 44.5296 23.3869 44.5301 23.3863C44.7254 23.1844 45.0445 23.1789 45.2432 23.3651L57.2598 34.6396L57.2631 34.6426C57.4735 34.8366 57.4735 35.1727 57.2631 35.3666Z" stroke="black"/>
</g>
<defs>
<clipPath id="clip0">
<rect width="70" height="70" rx="10" fill="white"/>
</clipPath>
</defs>
</svg>
